<svg width="180" height="132" viewBox="0 0 180 132" fill="none" xmlns="http://www.w3.org/2000/svg">
  <rect x="30" y="28" width="104" height="78" rx="14" fill="#FFFFFF" stroke="#B0CCF7" stroke-width="2"/>
  <path d="M30 50H134" stroke="#2457D6" stroke-width="10" stroke-linecap="round"/>
  <path d="M54 22V38" stroke="#2457D6" stroke-width="6" stroke-linecap="round"/>
  <path d="M110 22V38" stroke="#2457D6" stroke-width="6" stroke-linecap="round"/>
  <rect x="48" y="66" width="16" height="14" rx="4" fill="#DDFCF6"/>
  <rect x="76" y="66" width="16" height="14" rx="4" fill="#E6EDFF"/>
  <rect x="104" y="66" width="16" height="14" rx="4" fill="#FEF3C7"/>
  <rect x="48" y="88" width="16" height="14" rx="4" fill="#E6EDFF"/>
  <rect x="76" y="88" width="16" height="14" rx="4" fill="#DDFCF6"/>
  <circle cx="132" cy="92" r="22" fill="#DDFCF6" stroke="#0E9384" stroke-width="2"/>
  <path d="M122 91.5L130 99.5L144 84.5" stroke="#15803D" stroke-width="5" stroke-linecap="round" stroke-linejoin="round"/>
  <path d="M30 118C49 110 70 110 90 118C111 126 132 126 154 116" stroke="#B0CCF7" stroke-width="5" stroke-linecap="round"/>
</svg>
