<svg width="128" height="128" viewBox="0 0 128 128" fill="none" xmlns="http://www.w3.org/2000/svg">
  <rect x="20" y="18" width="88" height="78" rx="12" fill="#DDFCF6" stroke="#0B1020" stroke-width="4"/>
  <path d="M36 42H74M36 58H64M36 74H82" stroke="#0E9384" stroke-width="6" stroke-linecap="round"/>
  <circle cx="91" cy="37" r="12" fill="#FBBF24" stroke="#0B1020" stroke-width="4"/>
  <path d="M86 37L90 41L98 32" stroke="#0B1020" stroke-width="4" stroke-linecap="round" stroke-linejoin="round"/>
  <path d="M31 96L22 112L47 101" fill="#DDFCF6"/>
  <path d="M31 96L22 112L47 101" stroke="#0B1020" stroke-width="4" stroke-linejoin="round"/>
  <rect x="66" y="78" width="44" height="36" rx="10" fill="#56A9FF" stroke="#0B1020" stroke-width="4"/>
  <path d="M78 95H98M88 85V105" stroke="#FFFFFF" stroke-width="5" stroke-linecap="round"/>
  <path d="M16 34L9 29M111 69L119 64M18 79L9 84M111 101L119 107" stroke="#0B1020" stroke-width="4" stroke-linecap="round"/>
</svg>
